<?xml version="1.0" encoding="iso-8859-1"?>
<!-- Generator: Adobe Illustrator 19.0.0, SVG Export Plug-In . SVG Version: 6.00 Build 0)  -->
<svg version="1.1" id="Capa_1" xmlns="http://www.w3.org/2000/svg" xmlns:xlink="http://www.w3.org/1999/xlink" x="0px" y="0px"
	 viewBox="0 0 453.129 453.129" style="enable-background:new 0 0 453.129 453.129;" xml:space="preserve">
<path style="fill:#A59F97;" d="M338.565,325.129h-72l-40,40l-40-40h-72c-26.51,0-48,21.49-48,48v72h320v-72
	C386.565,346.619,365.074,325.129,338.565,325.129z"/>
<g>
	<path style="fill:#F2DBC0;" d="M299.365,83.409c-7.265-18.165-27.88-27.002-46.045-19.737c-2.632,1.053-5.128,2.417-7.435,4.065
		c-11.667,8.336-27.209,8.816-39.368,1.216l-3.496-2.184c-16.59-10.37-38.445-5.327-48.815,11.263
		c-1.833,2.933-3.227,6.119-4.137,9.457l-11.504,53.64v48c0.007,33.053,18.551,63.31,48,78.32l0,0v57.68l40,40l40-40v-57.68l0,0
		c29.449-15.01,47.993-45.267,48-78.32v-48L299.365,83.409z"/>
	<path style="fill:#F2DBC0;" d="M126.565,141.129c-11.046,0-20,8.954-20,20s8.954,20,20,20h12v-40H126.565z"/>
	<path style="fill:#F2DBC0;" d="M326.565,181.129c11.046,0,20-8.954,20-20s-8.954-20-20-20h-12v40H326.565z"/>
</g>
<path style="fill:#4C3D24;" d="M202.981,66.769l3.496,2.184c12.159,7.6,27.701,7.12,39.368-1.216
	c15.908-11.388,38.036-7.724,49.424,8.184c1.662,2.322,3.037,4.836,4.096,7.488l15.2,57.72l-3.336-79.808
	c-5.474-34.472-37.858-57.98-72.33-52.506c-5.142,0.817-10.163,2.265-14.95,4.314l-37.384,16c-30.928,0-56,25.072-56,56l8,56l0,0
	l11.464-53.6c5.128-18.88,24.59-30.029,43.47-24.901C196.845,63.537,200.04,64.932,202.981,66.769z"/>
<path d="M338.565,317.129h-64v-44.992c29.662-17.125,47.953-48.757,48-83.008h4c15.464,0,28-12.536,28-28s-12.536-28-28-28h-4.328
	l-3.016-72.152c-0.016-0.305-0.048-0.61-0.096-0.912c-6.155-38.838-42.63-65.332-81.468-59.177
	c-5.802,0.92-11.468,2.554-16.868,4.865l-35.92,15.376c-34.666,0.957-62.278,29.321-62.304,64c-0.001,0.38,0.026,0.76,0.08,1.136
	l6.696,46.864h-2.776c-15.464,0-28,12.536-28,28s12.536,28,28,28h4c0.047,34.251,18.338,65.883,48,83.008v44.992h-64
	c-30.913,0.035-55.965,25.087-56,56v72c0,4.418,3.582,8,8,8h320c4.418,0,8-3.582,8-8v-72
	C394.529,342.216,369.478,317.164,338.565,317.129z M338.565,161.129c0,6.627-5.373,12-12,12h-4v-24h4
	C333.192,149.129,338.565,154.502,338.565,161.129z M186.565,37.129c1.084,0.002,2.157-0.218,3.152-0.648l37.376-16
	c28.029-11.991,60.471,1.01,72.462,29.039c1.732,4.048,2.973,8.29,3.698,12.633l0.512,12.232
	c-12.278-20.616-38.945-27.376-59.561-15.097c-1.032,0.614-2.038,1.271-3.015,1.969c-9.025,6.467-21.064,6.84-30.472,0.944
	l-3.496-2.192c-20.326-12.712-47.108-6.54-59.82,13.786c-2.332,3.729-4.084,7.791-5.196,12.046l-2.04,9.688l-1.6-10.944
	C138.893,58.301,160.278,37.158,186.565,37.129z M126.565,173.129c-6.627,0-12-5.373-12-12s5.373-12,12-12h4v24H126.565z
	 M146.565,189.129v-47.152l11.2-52.384c4.011-14.61,19.106-23.202,33.716-19.191c2.567,0.705,5.019,1.78,7.276,3.191l3.504,2.192
	c14.897,9.344,33.966,8.753,48.256-1.496c12.329-8.805,29.462-5.947,38.266,6.382c1.171,1.639,2.157,3.403,2.942,5.258l14.84,56.232
	v46.968c0,44.183-35.817,80-80,80S146.565,233.312,146.565,189.129z M226.565,285.129c10.908-0.023,21.732-1.917,32-5.6v42.288
	l-32,32l-32-32v-42.288C204.832,283.212,215.656,285.106,226.565,285.129z M378.565,437.129h-304v-64
	c0.026-22.08,17.92-39.974,40-40h68.688l37.656,37.656c3.124,3.123,8.188,3.123,11.312,0l37.656-37.656h68.688
	c22.08,0.026,39.974,17.92,40,40V437.129z"/>
<path d="M186.565,151.129c-7.732,0-14,6.268-14,14s6.268,14,14,14s14-6.268,14-14C200.556,157.401,194.293,151.138,186.565,151.129z
	 M184.565,165.129c0-1.105,0.895-2,2-2s2,0.895,2,2C188.565,167.329,184.565,167.329,184.565,165.129z"/>
<path d="M266.565,179.129c7.732,0,14-6.268,14-14s-6.268-14-14-14s-14,6.268-14,14C252.573,172.857,258.836,179.12,266.565,179.129z
	 M266.565,163.129c1.105,0,2,0.895,2,2c0,2.2-4,2.2-4,0C264.565,164.024,265.46,163.129,266.565,163.129z"/>
<path d="M256.565,205.129h-12c0,9.941-8.059,18-18,18s-18-8.059-18-18h-12c0,16.569,13.431,30,30,30
	S256.565,221.698,256.565,205.129z"/>
<g>
</g>
<g>
</g>
<g>
</g>
<g>
</g>
<g>
</g>
<g>
</g>
<g>
</g>
<g>
</g>
<g>
</g>
<g>
</g>
<g>
</g>
<g>
</g>
<g>
</g>
<g>
</g>
<g>
</g>
</svg>
